<svg width="56" height="56" viewBox="0 0 56 56" fill="none" xmlns="http://www.w3.org/2000/svg">
<g id="camera-off" clip-path="url(#clip0_2179_27256)">
<path id="Vector" d="M2.33594 2.33203L53.6693 53.6654" stroke="#F8F8F8" stroke-width="4.66667" stroke-linecap="round" stroke-linejoin="round"/>
<path id="Vector_2" d="M49.0026 49H7.0026C5.76493 49 4.57794 48.5083 3.70277 47.6332C2.8276 46.758 2.33594 45.571 2.33594 44.3333V18.6667C2.33594 17.429 2.8276 16.242 3.70277 15.3668C4.57794 14.4917 5.76493 14 7.0026 14H14.0026M21.0026 7H35.0026L39.6693 14H49.0026C50.2403 14 51.4273 14.4917 52.3024 15.3668C53.1776 16.242 53.6693 17.429 53.6693 18.6667V40.46M35.6559 35.6533C34.8815 36.7851 33.8672 37.7323 32.6851 38.4276C31.5031 39.1229 30.1823 39.5491 28.8168 39.676C27.4513 39.8029 26.0746 39.6273 24.7847 39.1617C23.4948 38.6962 22.3233 37.9521 21.3536 36.9824C20.3839 36.0126 19.6398 34.8412 19.1742 33.5512C18.7086 32.2613 18.5331 30.8846 18.66 29.5191C18.7868 28.1536 19.2131 26.8329 19.9083 25.6508C20.6036 24.4688 21.5508 23.4544 22.6826 22.68" stroke="#F8F8F8" stroke-width="4.66667" stroke-linecap="round" stroke-linejoin="round"/>
</g>
<defs>
<clipPath id="clip0_2179_27256">
<rect width="56" height="56" fill="white"/>
</clipPath>
</defs>
</svg>
