<svg width="208" height="217" viewBox="0 0 208 217" fill="none" xmlns="http://www.w3.org/2000/svg">
<path id="&#208;&#164;&#208;&#184;&#209;&#135;&#208;&#176;" fill-rule="evenodd" clip-rule="evenodd" d="M0 1C0 0.447715 0.447715 0 1 0H7C7.55228 0 8 0.447715 8 1V7C8 7.55228 7.55228 8 7 8H1C0.447715 8 0 7.55228 0 7V1ZM0 22C0 21.4477 0.447715 21 1 21H7C7.55228 21 8 21.4477 8 22V28C8 28.5523 7.55228 29 7 29H1C0.447715 29 0 28.5523 0 28V22ZM1 42C0.447715 42 0 42.4477 0 43V49C0 49.5523 0.447715 50 1 50H7C7.55228 50 8 49.5523 8 49V43C8 42.4477 7.55228 42 7 42H1ZM0 64C0 63.4477 0.447715 63 1 63H7C7.55228 63 8 63.4477 8 64V70C8 70.5523 7.55228 71 7 71H1C0.447715 71 0 70.5523 0 70V64ZM1 84C0.447715 84 0 84.4477 0 85V91C0 91.5523 0.447715 92 1 92H7C7.55228 92 8 91.5523 8 91V85C8 84.4477 7.55228 84 7 84H1ZM0 106C0 105.448 0.447715 105 1 105H7C7.55228 105 8 105.448 8 106V112C8 112.552 7.55228 113 7 113H1C0.447715 113 0 112.552 0 112V106ZM1 126C0.447715 126 0 126.448 0 127V133C0 133.552 0.447715 134 1 134H7C7.55228 134 8 133.552 8 133V127C8 126.448 7.55228 126 7 126H1ZM0 148C0 147.448 0.447715 147 1 147H7C7.55228 147 8 147.448 8 148V154C8 154.552 7.55228 155 7 155H1C0.447715 155 0 154.552 0 154V148ZM1 168C0.447715 168 0 168.448 0 169V175C0 175.552 0.447715 176 1 176H7C7.55228 176 8 175.552 8 175V169C8 168.448 7.55228 168 7 168H1ZM0 190C0 189.448 0.447715 189 1 189H7C7.55228 189 8 189.448 8 190V196C8 196.552 7.55228 197 7 197H1C0.447715 197 0 196.552 0 196V190ZM1 209C0.447715 209 0 209.448 0 210V216C0 216.552 0.447715 217 1 217H7C7.55228 217 8 216.552 8 216V210C8 209.448 7.55228 209 7 209H1ZM20 1C20 0.447715 20.4477 0 21 0H27C27.5523 0 28 0.447715 28 1V7C28 7.55228 27.5523 8 27 8H21C20.4477 8 20 7.55228 20 7V1ZM21 21C20.4477 21 20 21.4477 20 22V28C20 28.5523 20.4477 29 21 29H27C27.5523 29 28 28.5523 28 28V22C28 21.4477 27.5523 21 27 21H21ZM20 43C20 42.4477 20.4477 42 21 42H27C27.5523 42 28 42.4477 28 43V49C28 49.5523 27.5523 50 27 50H21C20.4477 50 20 49.5523 20 49V43ZM21 63C20.4477 63 20 63.4477 20 64V70C20 70.5523 20.4477 71 21 71H27C27.5523 71 28 70.5523 28 70V64C28 63.4477 27.5523 63 27 63H21ZM20 85C20 84.4477 20.4477 84 21 84H27C27.5523 84 28 84.4477 28 85V91C28 91.5523 27.5523 92 27 92H21C20.4477 92 20 91.5523 20 91V85ZM21 105C20.4477 105 20 105.448 20 106V112C20 112.552 20.4477 113 21 113H27C27.5523 113 28 112.552 28 112V106C28 105.448 27.5523 105 27 105H21ZM20 127C20 126.448 20.4477 126 21 126H27C27.5523 126 28 126.448 28 127V133C28 133.552 27.5523 134 27 134H21C20.4477 134 20 133.552 20 133V127ZM21 147C20.4477 147 20 147.448 20 148V154C20 154.552 20.4477 155 21 155H27C27.5523 155 28 154.552 28 154V148C28 147.448 27.5523 147 27 147H21ZM20 169C20 168.448 20.4477 168 21 168H27C27.5523 168 28 168.448 28 169V175C28 175.552 27.5523 176 27 176H21C20.4477 176 20 175.552 20 175V169ZM21 189C20.4477 189 20 189.448 20 190V196C20 196.552 20.4477 197 21 197H27C27.5523 197 28 196.552 28 196V190C28 189.448 27.5523 189 27 189H21ZM20 210C20 209.448 20.4477 209 21 209H27C27.5523 209 28 209.448 28 210V216C28 216.552 27.5523 217 27 217H21C20.4477 217 20 216.552 20 216V210ZM41 0C40.4477 0 40 0.447715 40 1V7C40 7.55228 40.4477 8 41 8H47C47.5523 8 48 7.55228 48 7V1C48 0.447715 47.5523 0 47 0H41ZM40 22C40 21.4477 40.4477 21 41 21H47C47.5523 21 48 21.4477 48 22V28C48 28.5523 47.5523 29 47 29H41C40.4477 29 40 28.5523 40 28V22ZM41 42C40.4477 42 40 42.4477 40 43V49C40 49.5523 40.4477 50 41 50H47C47.5523 50 48 49.5523 48 49V43C48 42.4477 47.5523 42 47 42H41ZM40 64C40 63.4477 40.4477 63 41 63H47C47.5523 63 48 63.4477 48 64V70C48 70.5523 47.5523 71 47 71H41C40.4477 71 40 70.5523 40 70V64ZM41 84C40.4477 84 40 84.4477 40 85V91C40 91.5523 40.4477 92 41 92H47C47.5523 92 48 91.5523 48 91V85C48 84.4477 47.5523 84 47 84H41ZM40 106C40 105.448 40.4477 105 41 105H47C47.5523 105 48 105.448 48 106V112C48 112.552 47.5523 113 47 113H41C40.4477 113 40 112.552 40 112V106ZM41 126C40.4477 126 40 126.448 40 127V133C40 133.552 40.4477 134 41 134H47C47.5523 134 48 133.552 48 133V127C48 126.448 47.5523 126 47 126H41ZM40 148C40 147.448 40.4477 147 41 147H47C47.5523 147 48 147.448 48 148V154C48 154.552 47.5523 155 47 155H41C40.4477 155 40 154.552 40 154V148ZM41 168C40.4477 168 40 168.448 40 169V175C40 175.552 40.4477 176 41 176H47C47.5523 176 48 175.552 48 175V169C48 168.448 47.5523 168 47 168H41ZM40 190C40 189.448 40.4477 189 41 189H47C47.5523 189 48 189.448 48 190V196C48 196.552 47.5523 197 47 197H41C40.4477 197 40 196.552 40 196V190ZM41 209C40.4477 209 40 209.448 40 210V216C40 216.552 40.4477 217 41 217H47C47.5523 217 48 216.552 48 216V210C48 209.448 47.5523 209 47 209H41ZM60 1C60 0.447715 60.4477 0 61 0H67C67.5523 0 68 0.447715 68 1V7C68 7.55228 67.5523 8 67 8H61C60.4477 8 60 7.55228 60 7V1ZM61 21C60.4477 21 60 21.4477 60 22V28C60 28.5523 60.4477 29 61 29H67C67.5523 29 68 28.5523 68 28V22C68 21.4477 67.5523 21 67 21H61ZM60 43C60 42.4477 60.4477 42 61 42H67C67.5523 42 68 42.4477 68 43V49C68 49.5523 67.5523 50 67 50H61C60.4477 50 60 49.5523 60 49V43ZM61 63C60.4477 63 60 63.4477 60 64V70C60 70.5523 60.4477 71 61 71H67C67.5523 71 68 70.5523 68 70V64C68 63.4477 67.5523 63 67 63H61ZM60 85C60 84.4477 60.4477 84 61 84H67C67.5523 84 68 84.4477 68 85V91C68 91.5523 67.5523 92 67 92H61C60.4477 92 60 91.5523 60 91V85ZM61 105C60.4477 105 60 105.448 60 106V112C60 112.552 60.4477 113 61 113H67C67.5523 113 68 112.552 68 112V106C68 105.448 67.5523 105 67 105H61ZM60 127C60 126.448 60.4477 126 61 126H67C67.5523 126 68 126.448 68 127V133C68 133.552 67.5523 134 67 134H61C60.4477 134 60 133.552 60 133V127ZM61 147C60.4477 147 60 147.448 60 148V154C60 154.552 60.4477 155 61 155H67C67.5523 155 68 154.552 68 154V148C68 147.448 67.5523 147 67 147H61ZM60 169C60 168.448 60.4477 168 61 168H67C67.5523 168 68 168.448 68 169V175C68 175.552 67.5523 176 67 176H61C60.4477 176 60 175.552 60 175V169ZM61 189C60.4477 189 60 189.448 60 190V196C60 196.552 60.4477 197 61 197H67C67.5523 197 68 196.552 68 196V190C68 189.448 67.5523 189 67 189H61ZM60 210C60 209.448 60.4477 209 61 209H67C67.5523 209 68 209.448 68 210V216C68 216.552 67.5523 217 67 217H61C60.4477 217 60 216.552 60 216V210ZM81 0C80.4477 0 80 0.447715 80 1V7C80 7.55228 80.4477 8 81 8H87C87.5523 8 88 7.55228 88 7V1C88 0.447715 87.5523 0 87 0H81ZM80 22C80 21.4477 80.4477 21 81 21H87C87.5523 21 88 21.4477 88 22V28C88 28.5523 87.5523 29 87 29H81C80.4477 29 80 28.5523 80 28V22ZM81 42C80.4477 42 80 42.4477 80 43V49C80 49.5523 80.4477 50 81 50H87C87.5523 50 88 49.5523 88 49V43C88 42.4477 87.5523 42 87 42H81ZM80 64C80 63.4477 80.4477 63 81 63H87C87.5523 63 88 63.4477 88 64V70C88 70.5523 87.5523 71 87 71H81C80.4477 71 80 70.5523 80 70V64ZM81 84C80.4477 84 80 84.4477 80 85V91C80 91.5523 80.4477 92 81 92H87C87.5523 92 88 91.5523 88 91V85C88 84.4477 87.5523 84 87 84H81ZM80 106C80 105.448 80.4477 105 81 105H87C87.5523 105 88 105.448 88 106V112C88 112.552 87.5523 113 87 113H81C80.4477 113 80 112.552 80 112V106ZM81 126C80.4477 126 80 126.448 80 127V133C80 133.552 80.4477 134 81 134H87C87.5523 134 88 133.552 88 133V127C88 126.448 87.5523 126 87 126H81ZM80 148C80 147.448 80.4477 147 81 147H87C87.5523 147 88 147.448 88 148V154C88 154.552 87.5523 155 87 155H81C80.4477 155 80 154.552 80 154V148ZM81 168C80.4477 168 80 168.448 80 169V175C80 175.552 80.4477 176 81 176H87C87.5523 176 88 175.552 88 175V169C88 168.448 87.5523 168 87 168H81ZM80 190C80 189.448 80.4477 189 81 189H87C87.5523 189 88 189.448 88 190V196C88 196.552 87.5523 197 87 197H81C80.4477 197 80 196.552 80 196V190ZM81 209C80.4477 209 80 209.448 80 210V216C80 216.552 80.4477 217 81 217H87C87.5523 217 88 216.552 88 216V210C88 209.448 87.5523 209 87 209H81ZM100 1C100 0.447715 100.448 0 101 0H107C107.552 0 108 0.447715 108 1V7C108 7.55228 107.552 8 107 8H101C100.448 8 100 7.55228 100 7V1ZM101 21C100.448 21 100 21.4477 100 22V28C100 28.5523 100.448 29 101 29H107C107.552 29 108 28.5523 108 28V22C108 21.4477 107.552 21 107 21H101ZM100 43C100 42.4477 100.448 42 101 42H107C107.552 42 108 42.4477 108 43V49C108 49.5523 107.552 50 107 50H101C100.448 50 100 49.5523 100 49V43ZM101 63C100.448 63 100 63.4477 100 64V70C100 70.5523 100.448 71 101 71H107C107.552 71 108 70.5523 108 70V64C108 63.4477 107.552 63 107 63H101ZM100 85C100 84.4477 100.448 84 101 84H107C107.552 84 108 84.4477 108 85V91C108 91.5523 107.552 92 107 92H101C100.448 92 100 91.5523 100 91V85ZM101 105C100.448 105 100 105.448 100 106V112C100 112.552 100.448 113 101 113H107C107.552 113 108 112.552 108 112V106C108 105.448 107.552 105 107 105H101ZM100 127C100 126.448 100.448 126 101 126H107C107.552 126 108 126.448 108 127V133C108 133.552 107.552 134 107 134H101C100.448 134 100 133.552 100 133V127ZM101 147C100.448 147 100 147.448 100 148V154C100 154.552 100.448 155 101 155H107C107.552 155 108 154.552 108 154V148C108 147.448 107.552 147 107 147H101ZM100 169C100 168.448 100.448 168 101 168H107C107.552 168 108 168.448 108 169V175C108 175.552 107.552 176 107 176H101C100.448 176 100 175.552 100 175V169ZM101 189C100.448 189 100 189.448 100 190V196C100 196.552 100.448 197 101 197H107C107.552 197 108 196.552 108 196V190C108 189.448 107.552 189 107 189H101ZM100 210C100 209.448 100.448 209 101 209H107C107.552 209 108 209.448 108 210V216C108 216.552 107.552 217 107 217H101C100.448 217 100 216.552 100 216V210ZM121 0C120.448 0 120 0.447715 120 1V7C120 7.55228 120.448 8 121 8H127C127.552 8 128 7.55228 128 7V1C128 0.447715 127.552 0 127 0H121ZM120 22C120 21.4477 120.448 21 121 21H127C127.552 21 128 21.4477 128 22V28C128 28.5523 127.552 29 127 29H121C120.448 29 120 28.5523 120 28V22ZM121 42C120.448 42 120 42.4477 120 43V49C120 49.5523 120.448 50 121 50H127C127.552 50 128 49.5523 128 49V43C128 42.4477 127.552 42 127 42H121ZM120 64C120 63.4477 120.448 63 121 63H127C127.552 63 128 63.4477 128 64V70C128 70.5523 127.552 71 127 71H121C120.448 71 120 70.5523 120 70V64ZM121 84C120.448 84 120 84.4477 120 85V91C120 91.5523 120.448 92 121 92H127C127.552 92 128 91.5523 128 91V85C128 84.4477 127.552 84 127 84H121ZM120 106C120 105.448 120.448 105 121 105H127C127.552 105 128 105.448 128 106V112C128 112.552 127.552 113 127 113H121C120.448 113 120 112.552 120 112V106ZM121 126C120.448 126 120 126.448 120 127V133C120 133.552 120.448 134 121 134H127C127.552 134 128 133.552 128 133V127C128 126.448 127.552 126 127 126H121ZM120 148C120 147.448 120.448 147 121 147H127C127.552 147 128 147.448 128 148V154C128 154.552 127.552 155 127 155H121C120.448 155 120 154.552 120 154V148ZM121 168C120.448 168 120 168.448 120 169V175C120 175.552 120.448 176 121 176H127C127.552 176 128 175.552 128 175V169C128 168.448 127.552 168 127 168H121ZM120 190C120 189.448 120.448 189 121 189H127C127.552 189 128 189.448 128 190V196C128 196.552 127.552 197 127 197H121C120.448 197 120 196.552 120 196V190ZM121 209C120.448 209 120 209.448 120 210V216C120 216.552 120.448 217 121 217H127C127.552 217 128 216.552 128 216V210C128 209.448 127.552 209 127 209H121ZM140 1C140 0.447715 140.448 0 141 0H147C147.552 0 148 0.447715 148 1V7C148 7.55228 147.552 8 147 8H141C140.448 8 140 7.55228 140 7V1ZM141 21C140.448 21 140 21.4477 140 22V28C140 28.5523 140.448 29 141 29H147C147.552 29 148 28.5523 148 28V22C148 21.4477 147.552 21 147 21H141ZM140 43C140 42.4477 140.448 42 141 42H147C147.552 42 148 42.4477 148 43V49C148 49.5523 147.552 50 147 50H141C140.448 50 140 49.5523 140 49V43ZM141 63C140.448 63 140 63.4477 140 64V70C140 70.5523 140.448 71 141 71H147C147.552 71 148 70.5523 148 70V64C148 63.4477 147.552 63 147 63H141ZM140 85C140 84.4477 140.448 84 141 84H147C147.552 84 148 84.4477 148 85V91C148 91.5523 147.552 92 147 92H141C140.448 92 140 91.5523 140 91V85ZM141 105C140.448 105 140 105.448 140 106V112C140 112.552 140.448 113 141 113H147C147.552 113 148 112.552 148 112V106C148 105.448 147.552 105 147 105H141ZM140 127C140 126.448 140.448 126 141 126H147C147.552 126 148 126.448 148 127V133C148 133.552 147.552 134 147 134H141C140.448 134 140 133.552 140 133V127ZM141 147C140.448 147 140 147.448 140 148V154C140 154.552 140.448 155 141 155H147C147.552 155 148 154.552 148 154V148C148 147.448 147.552 147 147 147H141ZM140 169C140 168.448 140.448 168 141 168H147C147.552 168 148 168.448 148 169V175C148 175.552 147.552 176 147 176H141C140.448 176 140 175.552 140 175V169ZM141 189C140.448 189 140 189.448 140 190V196C140 196.552 140.448 197 141 197H147C147.552 197 148 196.552 148 196V190C148 189.448 147.552 189 147 189H141ZM140 210C140 209.448 140.448 209 141 209H147C147.552 209 148 209.448 148 210V216C148 216.552 147.552 217 147 217H141C140.448 217 140 216.552 140 216V210ZM161 0C160.448 0 160 0.447715 160 1V7C160 7.55228 160.448 8 161 8H167C167.552 8 168 7.55228 168 7V1C168 0.447715 167.552 0 167 0H161ZM160 22C160 21.4477 160.448 21 161 21H167C167.552 21 168 21.4477 168 22V28C168 28.5523 167.552 29 167 29H161C160.448 29 160 28.5523 160 28V22ZM161 42C160.448 42 160 42.4477 160 43V49C160 49.5523 160.448 50 161 50H167C167.552 50 168 49.5523 168 49V43C168 42.4477 167.552 42 167 42H161ZM160 64C160 63.4477 160.448 63 161 63H167C167.552 63 168 63.4477 168 64V70C168 70.5523 167.552 71 167 71H161C160.448 71 160 70.5523 160 70V64ZM161 84C160.448 84 160 84.4477 160 85V91C160 91.5523 160.448 92 161 92H167C167.552 92 168 91.5523 168 91V85C168 84.4477 167.552 84 167 84H161ZM160 106C160 105.448 160.448 105 161 105H167C167.552 105 168 105.448 168 106V112C168 112.552 167.552 113 167 113H161C160.448 113 160 112.552 160 112V106ZM161 126C160.448 126 160 126.448 160 127V133C160 133.552 160.448 134 161 134H167C167.552 134 168 133.552 168 133V127C168 126.448 167.552 126 167 126H161ZM160 148C160 147.448 160.448 147 161 147H167C167.552 147 168 147.448 168 148V154C168 154.552 167.552 155 167 155H161C160.448 155 160 154.552 160 154V148ZM161 168C160.448 168 160 168.448 160 169V175C160 175.552 160.448 176 161 176H167C167.552 176 168 175.552 168 175V169C168 168.448 167.552 168 167 168H161ZM160 190C160 189.448 160.448 189 161 189H167C167.552 189 168 189.448 168 190V196C168 196.552 167.552 197 167 197H161C160.448 197 160 196.552 160 196V190ZM161 209C160.448 209 160 209.448 160 210V216C160 216.552 160.448 217 161 217H167C167.552 217 168 216.552 168 216V210C168 209.448 167.552 209 167 209H161ZM180 1C180 0.447715 180.448 0 181 0H187C187.552 0 188 0.447715 188 1V7C188 7.55228 187.552 8 187 8H181C180.448 8 180 7.55228 180 7V1ZM181 21C180.448 21 180 21.4477 180 22V28C180 28.5523 180.448 29 181 29H187C187.552 29 188 28.5523 188 28V22C188 21.4477 187.552 21 187 21H181ZM180 43C180 42.4477 180.448 42 181 42H187C187.552 42 188 42.4477 188 43V49C188 49.5523 187.552 50 187 50H181C180.448 50 180 49.5523 180 49V43ZM181 63C180.448 63 180 63.4477 180 64V70C180 70.5523 180.448 71 181 71H187C187.552 71 188 70.5523 188 70V64C188 63.4477 187.552 63 187 63H181ZM180 85C180 84.4477 180.448 84 181 84H187C187.552 84 188 84.4477 188 85V91C188 91.5523 187.552 92 187 92H181C180.448 92 180 91.5523 180 91V85ZM181 105C180.448 105 180 105.448 180 106V112C180 112.552 180.448 113 181 113H187C187.552 113 188 112.552 188 112V106C188 105.448 187.552 105 187 105H181ZM180 127C180 126.448 180.448 126 181 126H187C187.552 126 188 126.448 188 127V133C188 133.552 187.552 134 187 134H181C180.448 134 180 133.552 180 133V127ZM181 147C180.448 147 180 147.448 180 148V154C180 154.552 180.448 155 181 155H187C187.552 155 188 154.552 188 154V148C188 147.448 187.552 147 187 147H181ZM180 169C180 168.448 180.448 168 181 168H187C187.552 168 188 168.448 188 169V175C188 175.552 187.552 176 187 176H181C180.448 176 180 175.552 180 175V169ZM181 189C180.448 189 180 189.448 180 190V196C180 196.552 180.448 197 181 197H187C187.552 197 188 196.552 188 196V190C188 189.448 187.552 189 187 189H181ZM180 210C180 209.448 180.448 209 181 209H187C187.552 209 188 209.448 188 210V216C188 216.552 187.552 217 187 217H181C180.448 217 180 216.552 180 216V210ZM201 0C200.448 0 200 0.447715 200 1V7C200 7.55228 200.448 8 201 8H207C207.552 8 208 7.55228 208 7V1C208 0.447715 207.552 0 207 0H201ZM200 22C200 21.4477 200.448 21 201 21H207C207.552 21 208 21.4477 208 22V28C208 28.5523 207.552 29 207 29H201C200.448 29 200 28.5523 200 28V22ZM201 42C200.448 42 200 42.4477 200 43V49C200 49.5523 200.448 50 201 50H207C207.552 50 208 49.5523 208 49V43C208 42.4477 207.552 42 207 42H201ZM200 64C200 63.4477 200.448 63 201 63H207C207.552 63 208 63.4477 208 64V70C208 70.5523 207.552 71 207 71H201C200.448 71 200 70.5523 200 70V64ZM201 84C200.448 84 200 84.4477 200 85V91C200 91.5523 200.448 92 201 92H207C207.552 92 208 91.5523 208 91V85C208 84.4477 207.552 84 207 84H201ZM200 106C200 105.448 200.448 105 201 105H207C207.552 105 208 105.448 208 106V112C208 112.552 207.552 113 207 113H201C200.448 113 200 112.552 200 112V106ZM201 126C200.448 126 200 126.448 200 127V133C200 133.552 200.448 134 201 134H207C207.552 134 208 133.552 208 133V127C208 126.448 207.552 126 207 126H201ZM200 148C200 147.448 200.448 147 201 147H207C207.552 147 208 147.448 208 148V154C208 154.552 207.552 155 207 155H201C200.448 155 200 154.552 200 154V148ZM201 168C200.448 168 200 168.448 200 169V175C200 175.552 200.448 176 201 176H207C207.552 176 208 175.552 208 175V169C208 168.448 207.552 168 207 168H201ZM200 190C200 189.448 200.448 189 201 189H207C207.552 189 208 189.448 208 190V196C208 196.552 207.552 197 207 197H201C200.448 197 200 196.552 200 196V190ZM201 209C200.448 209 200 209.448 200 210V216C200 216.552 200.448 217 201 217H207C207.552 217 208 216.552 208 216V210C208 209.448 207.552 209 207 209H201Z" fill="#EEE7D2"/>
</svg>
